<?xml version="1.0" standalone="no"?>
<!DOCTYPE svg PUBLIC "-//W3C//DTD SVG 20010904//EN"
 "http://www.w3.org/TR/2001/REC-SVG-20010904/DTD/svg10.dtd">
<svg version="1.0" xmlns="http://www.w3.org/2000/svg"
 width="600.000000pt" height="600.000000pt" viewBox="0 0 600.000000 600.000000"
 preserveAspectRatio="xMidYMid meet">

<g transform="translate(0.000000,600.000000) scale(0.100000,-0.100000)"
fill="#000000" stroke="none">
<path d="M2447 3960 c-130 -44 -210 -51 -274 -25 -44 19 -52 14 -21 -15 41
-38 77 -51 189 -65 91 -11 114 -17 140 -39 28 -24 38 -26 129 -26 74 0 102 4
114 15 51 51 21 142 -61 184 -38 19 -95 12 -216 -29z"/>
<path d="M2546 3633 c13 -54 24 -101 24 -105 0 -5 -22 -8 -48 -8 -59 0 -72
-12 -103 -95 -50 -137 -147 -221 -314 -271 -77 -23 -53 -28 110 -22 148 6 227
33 334 114 41 30 74 54 76 52 1 -2 10 -37 21 -78 13 -51 24 -75 34 -75 13 0
15 40 18 293 l2 292 -88 0 -89 0 23 -97z"/>
<path d="M1866 3568 c-83 -18 -138 -89 -138 -178 1 -131 129 -215 249 -165 50
21 72 42 94 90 33 71 22 144 -29 198 -49 51 -107 69 -176 55z"/>
<path d="M799 3430 c-172 -31 -408 -117 -484 -175 -23 -19 -34 -10 120 -99
266 -154 321 -175 378 -145 12 7 59 48 105 91 172 164 339 199 634 132 37 -9
74 -14 83 -12 17 4 -111 91 -200 135 -33 17 -98 43 -145 58 -116 38 -331 44
-491 15z"/>
<path d="M3380 3110 c-45 -11 -80 -52 -80 -94 0 -38 19 -58 72 -75 20 -7 39
-17 41 -24 6 -17 -9 -43 -28 -51 -21 -8 -55 10 -55 29 0 10 -11 15 -35 15 -32
0 -35 -3 -35 -28 0 -41 21 -63 67 -69 87 -12 163 43 163 117 0 44 -20 64 -82
81 -40 10 -48 28 -23 49 17 14 55 4 55 -16 0 -9 11 -14 35 -14 32 0 35 3 35
29 0 16 -6 33 -12 39 -19 15 -79 22 -118 12z"/>
<path d="M4907 3106 c-72 -26 -115 -89 -124 -180 -7 -69 21 -106 87 -113 100
-11 190 85 190 201 0 42 -5 57 -22 73 -31 28 -84 36 -131 19z m73 -76 c19 -35
-13 -126 -50 -145 -42 -22 -70 -6 -70 40 0 40 15 83 37 107 22 25 70 23 83 -2z"/>
<path d="M1045 2908 c-32 -112 -60 -209 -62 -215 -4 -10 11 -13 53 -13 l59 0
61 215 61 215 -57 0 -56 0 -59 -202z"/>
<path d="M1227 2910 c-32 -111 -61 -208 -64 -216 -4 -11 7 -14 53 -14 l59 0
20 68 20 67 91 5 c91 5 132 20 161 59 21 30 21 6 -3 -74 -41 -141 -50 -125 73
-125 128 0 168 10 225 53 83 63 141 228 108 307 -21 51 -59 64 -197 68 l-122
4 -12 -46 c-14 -57 -25 -65 -32 -26 -11 52 -45 65 -192 68 l-130 4 -58 -202z
m254 110 c27 -15 24 -55 -7 -79 -19 -15 -41 -21 -77 -21 -49 0 -49 0 -44 28
14 70 24 82 67 82 23 0 50 -5 61 -10z m354 -24 c15 -11 17 -22 12 -65 -9 -74
-42 -129 -87 -142 -34 -10 -86 -10 -84 1 0 3 13 53 29 113 l28 107 42 0 c22 0
49 -6 60 -14z"/>
<path d="M2841 2983 c-18 -71 -34 -136 -37 -145 -4 -15 1 -18 33 -18 l39 0 35
145 36 145 -37 0 -38 0 -31 -127z"/>
<path d="M2981 2978 c-19 -73 -36 -139 -39 -145 -3 -9 7 -13 32 -13 38 0 34
-6 64 110 4 19 12 34 17 33 5 -1 20 -33 33 -72 l24 -71 38 0 38 0 31 128 c18
70 34 135 37 145 4 14 -1 17 -30 17 -32 0 -36 -3 -45 -37 -5 -21 -15 -57 -21
-80 -6 -24 -12 -43 -14 -43 -2 0 -16 36 -32 80 l-27 80 -37 0 -36 0 -33 -132z"/>
<path d="M3566 3088 c-11 -43 -7 -48 33 -48 l39 0 -28 -110 -28 -110 38 0 38
0 27 110 27 110 44 0 c28 0 44 4 44 13 0 6 3 22 6 35 6 22 6 22 -114 22 -116
0 -120 -1 -126 -22z"/>
<path d="M3860 3107 c0 -2 -16 -64 -35 -138 -19 -74 -35 -138 -35 -142 0 -5
17 -7 37 -5 l36 3 37 143 36 142 -38 0 c-21 0 -38 -1 -38 -3z"/>
<path d="M3980 3098 c0 -7 -3 -23 -6 -35 -6 -21 -3 -23 36 -23 35 0 41 -3 36
-17 -12 -43 -46 -182 -46 -192 0 -6 16 -11 35 -11 38 0 36 -5 71 144 l18 76
42 0 c35 0 43 4 48 23 12 47 12 47 -114 47 -89 0 -120 -3 -120 -12z"/>
<path d="M4261 3073 c-48 -186 -50 -200 -23 -233 25 -31 104 -38 151 -13 52
27 71 61 102 178 l27 105 -38 0 -38 0 -22 -92 c-28 -116 -41 -138 -81 -138
-42 0 -45 19 -20 124 12 50 21 94 21 99 0 4 -16 7 -35 7 -31 0 -35 -3 -44 -37z"/>
<path d="M4556 3094 c-15 -39 -7 -54 29 -54 43 0 43 -4 10 -125 -14 -49 -25
-91 -25 -92 0 -2 17 -3 38 -3 l38 0 18 76 c36 151 32 144 77 144 33 0 41 4 49
26 6 14 10 30 10 35 0 5 -52 9 -119 9 -99 0 -120 -3 -125 -16z"/>
<path d="M4656 2710 c-70 -22 -125 -109 -126 -197 0 -62 20 -88 74 -98 99 -19
190 66 203 189 5 45 2 56 -18 79 -27 30 -85 42 -133 27z m69 -117 c-1 -37 -7
-61 -21 -80 -23 -31 -67 -42 -90 -22 -17 14 -17 31 -3 82 14 53 43 79 82 75
32 -3 32 -4 32 -55z"/>
<path d="M2865 2698 c-8 -25 -65 -257 -65 -267 0 -6 16 -11 35 -11 32 0 35 3
45 43 6 23 13 48 15 55 3 7 22 12 48 12 52 0 93 27 113 76 34 82 12 104 -102
104 -59 0 -86 -4 -89 -12z m120 -49 c13 -21 -5 -57 -31 -63 -35 -9 -43 2 -32
42 7 25 14 32 33 32 13 0 27 -5 30 -11z"/>
<path d="M3135 2698 c-2 -7 -20 -73 -39 -145 l-34 -133 108 0 c89 0 109 3 114
16 15 39 8 44 -59 44 -61 0 -65 1 -65 23 0 36 19 47 81 47 43 0 58 4 63 16 12
30 6 34 -55 34 -57 0 -60 1 -57 23 3 20 9 22 71 25 62 3 69 5 77 28 6 14 10
27 10 30 0 2 -47 4 -105 4 -76 0 -107 -4 -110 -12z"/>
<path d="M3369 2565 l-36 -145 38 0 c37 0 38 0 50 55 7 31 17 58 22 62 15 9
35 -20 44 -67 8 -44 9 -45 52 -48 l43 -3 -7 43 c-4 24 -12 52 -19 62 -11 18
-8 24 26 56 30 30 38 44 38 73 0 49 -19 57 -127 57 l-89 0 -35 -145z m170 71
c4 -25 -24 -46 -61 -46 -26 0 -28 2 -22 28 10 41 13 43 47 40 22 -2 33 -9 36
-22z"/>
<path d="M3685 2698 c-16 -47 -45 -182 -45 -211 0 -51 29 -72 98 -71 97 0 127
32 169 184 30 110 30 110 -11 110 -37 0 -36 1 -55 -75 -26 -105 -33 -125 -47
-140 -19 -19 -58 -20 -73 -1 -8 10 -5 37 14 110 14 53 25 98 25 101 0 11 -71
4 -75 -7z"/>
<path d="M3974 2574 c-43 -75 -80 -141 -82 -145 -2 -5 12 -9 31 -9 26 0 39 6
51 25 14 21 25 25 61 25 41 0 45 -2 45 -25 0 -23 4 -25 41 -25 l42 0 -7 93
c-4 50 -9 116 -12 145 l-6 52 -42 0 -42 0 -80 -136z m106 6 c0 -49 -1 -50 -30
-50 l-30 0 25 50 c14 28 28 50 30 50 3 0 5 -22 5 -50z"/>
<path d="M4241 2588 c-17 -68 -34 -133 -37 -145 -6 -21 -3 -23 28 -23 35 0 35
1 53 68 10 37 21 73 25 80 3 7 18 -21 34 -68 l28 -80 37 0 37 0 36 146 36 145
-36 -3 -36 -3 -19 -77 c-11 -43 -22 -76 -26 -74 -4 3 -18 39 -31 80 l-24 76
-37 0 -37 0 -31 -122z"/>
<path d="M1320 2561 l-45 -7 50 -8 c88 -13 227 -56 289 -89 36 -18 93 -63 138
-108 64 -63 85 -93 125 -175 69 -142 59 -138 358 -142 273 -4 290 0 262 54
-21 40 -177 189 -274 261 -144 107 -308 178 -481 208 -86 15 -333 18 -422 6z"/>
<path d="M4670 2298 c-59 -32 -100 -107 -100 -182 0 -62 22 -92 74 -102 99
-18 190 68 203 190 5 45 2 56 -19 80 -34 40 -98 46 -158 14z m95 -105 c-1 -37
-7 -61 -21 -80 -23 -31 -67 -42 -90 -22 -17 14 -17 31 -3 82 14 53 43 79 82
75 32 -3 32 -4 32 -55z"/>
<path d="M2861 2273 c-22 -85 -61 -242 -61 -247 0 -3 35 -6 79 -6 64 0 84 4
112 23 41 27 78 96 85 163 5 41 2 54 -16 77 -20 26 -26 27 -105 27 l-84 0 -10
-37z m129 -38 c17 -20 4 -97 -21 -129 -14 -17 -30 -26 -50 -26 -32 0 -33 1
-20 50 6 19 15 54 21 78 9 34 15 42 34 42 13 0 29 -7 36 -15z"/>
<path d="M3155 2298 c-2 -7 -19 -73 -38 -145 l-33 -133 107 0 c88 0 108 3 113
16 15 39 8 44 -59 44 -68 0 -71 2 -59 48 6 20 12 22 69 22 48 0 64 4 69 16 12
30 6 34 -54 34 -62 0 -69 6 -54 44 5 12 21 16 75 16 38 0 69 4 69 9 0 5 3 16
6 25 5 14 -7 16 -100 16 -76 0 -108 -4 -111 -12z"/>
<path d="M3389 2165 l-36 -145 103 0 c77 0 104 3 104 13 0 6 3 22 6 35 6 21 4
22 -55 22 -37 0 -61 4 -61 11 0 10 34 149 46 192 4 14 -1 17 -33 17 l-39 0
-35 -145z"/>
<path d="M3795 2298 c-8 -25 -65 -257 -65 -267 0 -16 135 -14 174 3 43 18 72
60 91 132 18 68 12 108 -18 129 -28 19 -175 21 -182 3z m123 -60 c7 -7 12 -19
12 -27 0 -33 -22 -93 -41 -112 -20 -20 -69 -26 -69 -8 0 11 26 121 35 147 6
15 47 16 63 0z"/>
<path d="M4051 2178 c-18 -72 -35 -138 -38 -145 -4 -10 18 -13 105 -13 105 0
110 1 116 23 3 12 6 25 6 30 0 4 -31 7 -70 7 -38 0 -70 2 -70 4 0 1 5 17 11
35 11 30 12 31 75 31 35 0 64 4 64 9 0 5 3 16 6 25 5 14 -3 16 -56 16 -61 0
-61 0 -58 28 3 26 5 27 74 30 67 3 72 4 77 27 l4 25 -106 0 -106 0 -34 -132z"/>
<path d="M4321 2183 c-18 -71 -34 -136 -37 -146 -5 -16 -1 -18 33 -15 37 3 38
5 52 56 14 51 14 52 53 52 76 0 128 50 128 123 0 50 -14 57 -111 57 l-87 0
-31 -127z m148 63 c16 -19 3 -46 -26 -57 -45 -17 -53 -7 -33 45 10 28 40 35
59 12z"/>
<path d="M4921 2273 c-23 -89 -61 -242 -61 -248 0 -3 17 -5 37 -3 36 3 38 4
51 61 19 77 41 75 62 -6 l14 -57 44 0 c36 0 43 3 38 18 -2 9 -7 32 -11 50 -4
18 -13 39 -21 46 -12 12 -9 17 20 34 45 27 65 82 42 117 -16 24 -22 25 -111
25 l-94 0 -10 -37z m139 -28 c18 -22 -14 -55 -52 -55 -29 0 -32 8 -22 48 7 26
54 31 74 7z"/>
<path d="M5190 2296 c0 -8 -3 -21 -6 -30 -5 -13 1 -16 29 -16 20 0 39 -4 42
-10 3 -5 -5 -53 -19 -106 -15 -53 -26 -100 -26 -105 0 -5 16 -9 35 -9 32 0 35
3 45 43 11 43 37 139 46 169 3 12 18 18 46 20 36 3 43 7 49 31 l7 27 -124 0
c-100 0 -124 -3 -124 -14z"/>
<path d="M5451 2183 c-18 -71 -34 -136 -37 -145 -5 -16 5 -18 105 -18 89 0
111 3 111 14 0 8 3 21 6 30 5 14 -4 16 -65 16 l-71 0 6 28 c10 42 11 42 78 42
60 0 64 1 68 25 5 25 4 25 -58 25 -35 0 -64 2 -64 4 0 3 4 16 10 30 8 23 15
25 77 28 62 3 68 5 71 26 3 22 2 22 -101 22 l-105 0 -31 -127z"/>
</g>
</svg>
